g FX_MESH_Guide_Line_02g
v -9.536743E-09 -0.15 0
v 9.536743E-09 0.14999999 0
v 0.14999999 0.14999999 0
v 0.14999999 -0.14999999 0
v -0.14999999 0.14999999 0
v -9.536743E-09 0.14999999 0
v 9.536743E-09 -0.15 0
v -0.14999999 -0.14999999 0
vt -1.3909073E-08 0
vt -1.3909073E-08 1
vt 0.99999994 0.99999994
vt 1 0
vt 0.99999994 0.99999994
vt -1.3909073E-08 1
vt -1.3909073E-08 0
vt 1 0
vn -0 0 1
vn -0 0 1
vn -0 0 1
vn -0 0 1
vn -0 0 1
vn -0 0 1
vn -0 0 1
vn -0 0 1
g FX_MESH_Guide_Line_02g_0
f 3/3/3 2/2/2 1/1/1
f 4/4/4 3/3/3 1/1/1
f 7/7/7 6/6/6 5/5/5
f 8/8/8 7/7/7 5/5/5
