g FX_MESH_Guide_Line_01g
v -8.950759E-09 -0.13659425 0
v 8.947824E-09 0.13652708 0
v 0.14999999 0.14999999 0
v 0.14999999 -0.14999999 0
v -0.14999999 0.14999999 0
v -1.0125662E-08 0.13652708 0
v 1.0122727E-08 -0.13659425 0
v -0.14999999 -0.14999999 0
v -0.14999999 0.14999968 0
v 0.15 0.14999965 0
v 0.03672283 0.13984476 0
v -0.036722805 0.13984478 0
v -5.5467382E-05 0.13618152 0
v 5.5479286E-05 0.13618152 0
v 0.036722817 -0.13984476 0
v 0.15 -0.14999965 0
v -0.14999999 -0.14999968 0
v -0.036722817 -0.13984478 0
v 5.547872E-05 -0.13618152 0
v -5.546795E-05 -0.13618152 0
vt -1.3909073E-08 0
vt -1.3909073E-08 1
vt 0.99999994 0.99999994
vt 1 0
vt 0.99999994 0.99999994
vt -1.3909073E-08 1
vt -1.3909073E-08 0
vt 1 0
vt 0.99193823 0
vt 0.99193823 1
vt 0.24959336 0.75285935
vt 0.24959342 0.24714063
vt -0.60141295 0.4942813
vt -0.60141295 0.5057187
vt 0.24959342 0.75285935
vt 0.99193823 1
vt 0.99193823 0
vt 0.24959336 0.24714066
vt -0.60141295 0.5057187
vt -0.60141295 0.4942813
vn -0 0 1
vn -0 0 1
vn -0 0 1
vn -0 0 1
vn -0 0 1
vn -0 0 1
vn -0 0 1
vn -0 0 1
vn -0 0 1
vn -0 0 1
vn -0 0 1
vn -0 0 1
vn -0 0 1
vn -0 0 1
vn -0 0 1
vn -0 0 1
vn -0 0 1
vn -0 0 1
vn -0 0 1
vn -0 0 1
g FX_MESH_Guide_Line_01g_0
f 3/3/3 2/2/2 1/1/1
f 4/4/4 3/3/3 1/1/1
f 7/7/7 6/6/6 5/5/5
f 8/8/8 7/7/7 5/5/5
f 11/11/11 10/10/10 9/9/9
f 12/12/12 11/11/11 9/9/9
f 11/11/11 12/12/12 13/13/13
f 14/14/14 11/11/11 13/13/13
f 17/17/17 16/16/16 15/15/15
f 18/18/18 17/17/17 15/15/15
f 18/18/18 15/15/15 19/19/19
f 20/20/20 18/18/18 19/19/19
