g fx_Snow
v -0.020000001 -7.629395E-09 -2.2888184E-08
v 0.020000001 0.28295085 -3.707225E-08
v 0.020000001 -7.629395E-09 -2.2888184E-08
v -0.020000001 0.28295085 -3.707225E-08
v -0 0.30211172 -3.707225E-08
v -0.010000004 0.1622976 -3.167845E-08
v 0.08028549 0.16823593 -3.167845E-08
v 0.009999993 0.1276566 -3.167845E-08
v 0.06028549 0.20287694 -2.7863752E-08
v 0.08687933 0.19513687 -3.167845E-08
v -0.009999993 0.1276566 -3.167845E-08
v -0.06028549 0.20287694 -2.7863752E-08
v 0.010000004 0.1622976 -3.167845E-08
v -0.08028549 0.16823593 -3.167845E-08
v -0.08687933 0.19513687 -3.167845E-08
v -0.010000006 0.017320506 -2.5710055E-08
v 0.25504264 0.124154896 -1.1201107E-08
v 0.009999993 -0.017320514 -2.0066315E-08
v 0.23504263 0.15879592 -1.6844846E-08
v 0.26163644 0.15105584 -1.2462125E-08
v 0.13555385 0.089809045 -1.9868567E-08
v 0.18583934 0.014588677 -6.6461365E-09
v 0.11555385 0.055168044 -1.9868567E-08
v 0.20583935 0.049229696 -2.8314373E-09
v 0.21243317 0.022328721 -3.5244268E-09
v 0.10555386 0.07248855 -2.2690434E-08
v 0.14555386 0.15364724 -1.9843215E-08
v 0.14555386 0.07248854 -1.7046696E-08
v 0.10555384 0.15364723 -2.9301653E-08
v 0.12555385 0.17280814 -2.804064E-08
v 0.009999995 0.017320512 -2.5710056E-08
v 0.23504262 -0.15879595 3.4897436E-08
v -0.010000008 -0.017320504 -2.0066317E-08
v 0.2550426 -0.124154925 2.9253695E-08
v 0.2616364 -0.15105587 3.6758117E-08
v 0.14555384 -0.072488554 6.573068E-09
v 0.105553836 -0.15364724 2.0762972E-08
v 0.10555384 -0.072488554 9.29329E-10
v 0.14555384 -0.15364726 3.0221415E-08
v 0.12555382 -0.17280816 2.8267406E-08
v 0.11555385 -0.055168055 -1.8925368E-09
v 0.20583934 -0.049229722 1.3209634E-08
v 0.13555384 -0.08980906 9.394939E-09
v 0.18583934 -0.0145887 -1.8925421E-09
v 0.21243316 -0.022328751 3.7511967E-09
v 0.020000001 5.880932E-09 -2.2888187E-08
v -0.020000026 -0.28295085 5.512484E-08
v -0.020000001 9.377843E-09 -2.288819E-08
v 0.019999975 -0.28295085 5.512484E-08
v -2.6411444E-08 -0.30211172 6.136825E-08
v 0.0099999895 -0.1622976 2.1204823E-08
v -0.080285504 -0.16823593 2.3139773E-08
v -0.010000004 -0.1276566 9.917349E-09
v -0.06028551 -0.20287694 3.8241946E-08
v -0.08687934 -0.19513687 3.1905213E-08
v 0.009999981 -0.1276566 9.917349E-09
v 0.06028547 -0.20287694 3.8241946E-08
v -0.010000018 -0.1622976 2.1204823E-08
v 0.080285475 -0.16823593 2.3139773E-08
v 0.08687931 -0.19513687 3.1905213E-08
v 0.010000005 -0.017320506 -2.0066317E-08
v -0.25504264 -0.12415488 2.9253687E-08
v -0.009999992 0.017320514 -2.5710056E-08
v -0.23504263 -0.15879591 3.489743E-08
v -0.26163644 -0.15105583 3.675811E-08
v -0.13555385 -0.08980904 9.3949355E-09
v -0.18583933 -0.01458867 -1.892546E-09
v -0.11555385 -0.055168036 -1.8925403E-09
v -0.20583934 -0.04922969 1.3209631E-08
v -0.21243316 -0.022328714 3.751189E-09
v -0.10555386 -0.07248853 9.293254E-10
v -0.14555387 -0.15364723 3.022141E-08
v -0.14555386 -0.07248853 6.573064E-09
v -0.10555385 -0.15364723 2.0762968E-08
v -0.12555386 -0.17280814 2.8267399E-08
v -0.009999992 -0.017320514 -2.0066315E-08
v -0.23504263 0.15879591 -1.6844842E-08
v 0.010000005 0.017320506 -2.5710055E-08
v -0.25504264 0.12415488 -1.1201102E-08
v -0.26163644 0.15105583 -1.2462123E-08
v -0.14555386 0.07248853 -1.7046696E-08
v -0.10555385 0.15364723 -2.930165E-08
v -0.10555386 0.07248853 -2.2690433E-08
v -0.14555387 0.15364723 -1.9843212E-08
v -0.12555386 0.17280814 -2.8040636E-08
v -0.11555385 0.055168036 -1.9868565E-08
v -0.20583934 0.04922969 -2.8314335E-09
v -0.13555385 0.08980904 -1.9868567E-08
v -0.18583933 0.01458867 -6.6461348E-09
v -0.21243316 0.022328714 -3.5244268E-09
vt 0.46177903 0.5
vt 0.538221 0.9682885
vt 0.538221 0.5
vt 0.46177903 0.9682885
vt 0.5 1
vt 0.4808895 0.7686053
vt 0.6534295 0.7784333
vt 0.5191105 0.71127385
vt 0.6152085 0.83576477
vt 0.66603065 0.8229549
vt 0.48088953 0.71127385
vt 0.3847915 0.83576477
vt 0.5191105 0.7686053
vt 0.3465705 0.7784333
vt 0.33396935 0.8229549
vt 0.4808895 0.5286657
vt 0.987399 0.7054785
vt 0.5191105 0.47133425
vt 0.949178 0.76281
vt 1 0.75
vt 0.75905 0.6486355
vt 0.8551481 0.52414453
vt 0.72082907 0.59130406
vt 0.8933691 0.581476
vt 0.9059702 0.5369544
vt 0.70171857 0.6199698
vt 0.7781606 0.7542888
vt 0.7781606 0.6199698
vt 0.70171857 0.7542888
vt 0.7399396 0.78600043
vt 0.5191105 0.5286657
vt 0.9491779 0.23718998
vt 0.4808895 0.47133428
vt 0.9873989 0.29452148
vt 0.99999994 0.24999997
vt 0.7781605 0.3800302
vt 0.70171857 0.2457112
vt 0.70171857 0.3800302
vt 0.7781605 0.24571118
vt 0.7399395 0.21399954
vt 0.72082907 0.40869594
vt 0.8933691 0.41852397
vt 0.75905 0.35136446
vt 0.8551481 0.47585544
vt 0.90597016 0.46304554
vt 0.538221 0.5
vt 0.46177897 0.03171152
vt 0.46177903 0.5
vt 0.53822094 0.03171152
vt 0.49999994 -5.9604645E-08
vt 0.51911044 0.23139471
vt 0.3465705 0.22156668
vt 0.4808895 0.28872615
vt 0.38479143 0.1642352
vt 0.33396932 0.17704514
vt 0.51911044 0.28872615
vt 0.6152085 0.1642352
vt 0.48088947 0.23139471
vt 0.65342945 0.22156668
vt 0.66603065 0.17704514
vt 0.5191105 0.47133428
vt 0.012601048 0.29452157
vt 0.48088953 0.5286657
vt 0.05082205 0.23719007
vt 0 0.25000003
vt 0.24094996 0.3513645
vt 0.14485198 0.4758555
vt 0.27917093 0.40869597
vt 0.10663095 0.41852403
vt 0.094029844 0.4630456
vt 0.2982814 0.38003024
vt 0.22183943 0.24571124
vt 0.22183946 0.38003024
vt 0.29828143 0.24571124
vt 0.26006043 0.21399957
vt 0.48088953 0.47133425
vt 0.05082205 0.76280993
vt 0.5191105 0.5286657
vt 0.012601048 0.7054784
vt 0 0.75
vt 0.22183946 0.6199697
vt 0.29828143 0.7542888
vt 0.2982814 0.6199697
vt 0.22183943 0.7542888
vt 0.26006043 0.78600043
vt 0.27917093 0.59130406
vt 0.10663095 0.581476
vt 0.24094996 0.6486355
vt 0.14485198 0.5241445
vt 0.094029844 0.5369544
vn -0 5.0129078E-08 1
vn -0 5.0129078E-08 1
vn -0 5.0129078E-08 1
vn -0 5.0129078E-08 1
vn -0 0 1
vn -0 -5.3046083E-08 1
vn -0 -5.3046083E-08 1
vn -0 -5.3046083E-08 1
vn -0 -5.3046083E-08 1
vn 1.3389115E-07 -3.2818804E-08 1
vn -0 -5.3046076E-08 1
vn -0 -5.304608E-08 1
vn -0 -5.304608E-08 1
vn -0 -5.304608E-08 1
vn -1.3389115E-07 -3.2818804E-08 1
vn -9.7680406E-08 1.0652491E-07 1
vn -9.7680406E-08 1.0652491E-07 1
vn -9.7680406E-08 1.065249E-07 1
vn -9.7680406E-08 1.065249E-07 1
vn -1.4109345E-07 8.1460335E-08 1
vn -1.8528817E-07 5.1915816E-08 1
vn -1.8528817E-07 5.1915812E-08 1
vn -1.8528819E-07 5.1915816E-08 1
vn -1.8528819E-07 5.1915816E-08 1
vn -1.02569786E-07 -5.0902123E-08 1
vn -1.8877721E-07 5.795888E-08 1
vn -1.887772E-07 5.795888E-08 1
vn -1.887772E-07 5.795888E-08 1
vn -1.887772E-07 5.795888E-08 1
vn -2.3646098E-07 1.8100421E-07 1
vn -9.768034E-08 2.1931649E-07 1
vn -9.7680356E-08 2.1931652E-07 1
vn -9.768034E-08 2.1931649E-07 1
vn -9.768035E-08 2.193165E-07 1
vn -1.4109354E-07 2.4438117E-07 1
vn -1.8877724E-07 2.678825E-07 1
vn -1.8877724E-07 2.6788254E-07 1
vn -1.8877724E-07 2.678825E-07 1
vn -1.8877725E-07 2.678825E-07 1
vn -2.3646099E-07 1.448374E-07 1
vn -1.8528816E-07 2.7392565E-07 1
vn -1.8528817E-07 2.7392565E-07 1
vn -1.8528814E-07 2.7392565E-07 1
vn -1.8528817E-07 2.7392565E-07 1
vn -1.0256985E-07 3.767435E-07 1
vn -0 2.757123E-07 1
vn -0 2.757123E-07 1
vn -0 2.757123E-07 1
vn -0 2.757123E-07 1
vn -0 3.258416E-07 1
vn -0 3.7888736E-07 1
vn -0 3.7888736E-07 1
vn -0 3.788874E-07 1
vn -0 3.788874E-07 1
vn -1.3389122E-07 3.5866012E-07 1
vn -0 3.788874E-07 1
vn -0 3.788874E-07 1
vn -0 3.788874E-07 1
vn -0 3.788874E-07 1
vn 1.3389118E-07 3.5866006E-07 1
vn 9.7680356E-08 2.1931652E-07 1
vn 9.7680356E-08 2.1931652E-07 1
vn 9.7680356E-08 2.1931652E-07 1
vn 9.7680356E-08 2.1931652E-07 1
vn 1.4109345E-07 2.443811E-07 1
vn 1.8528823E-07 2.7392562E-07 1
vn 1.8528821E-07 2.7392562E-07 1
vn 1.852882E-07 2.7392562E-07 1
vn 1.8528821E-07 2.7392562E-07 1
vn 1.0256975E-07 3.7674351E-07 1
vn 1.8877722E-07 2.678825E-07 1
vn 1.8877722E-07 2.678825E-07 1
vn 1.8877724E-07 2.678825E-07 1
vn 1.8877722E-07 2.678825E-07 1
vn 2.3646093E-07 1.4483707E-07 1
vn 9.7680406E-08 1.0652489E-07 1
vn 9.7680406E-08 1.0652489E-07 1
vn 9.7680406E-08 1.0652489E-07 1
vn 9.7680406E-08 1.0652489E-07 1
vn 1.4109338E-07 8.146039E-08 1
vn 1.8877718E-07 5.795888E-08 1
vn 1.8877718E-07 5.7958875E-08 1
vn 1.8877718E-07 5.7958875E-08 1
vn 1.8877718E-07 5.795888E-08 1
vn 2.3646089E-07 1.8100401E-07 1
vn 1.8528823E-07 5.1915837E-08 1
vn 1.8528824E-07 5.1915837E-08 1
vn 1.8528824E-07 5.1915837E-08 1
vn 1.8528821E-07 5.1915837E-08 1
vn 1.0256969E-07 -5.090223E-08 1
g fx_Snow_0
f 3/3/3 2/2/2 1/1/1
f 2/2/2 4/4/4 1/1/1
f 2/2/2 5/5/5 4/4/4
f 8/8/8 7/7/7 6/6/6
f 7/7/7 9/9/9 6/6/6
f 7/7/7 10/10/10 9/9/9
f 13/13/13 12/12/12 11/11/11
f 12/12/12 14/14/14 11/11/11
f 12/12/12 15/15/15 14/14/14
f 18/18/18 17/17/17 16/16/16
f 17/17/17 19/19/19 16/16/16
f 17/17/17 20/20/20 19/19/19
f 23/23/23 22/22/22 21/21/21
f 22/22/22 24/24/24 21/21/21
f 22/22/22 25/25/25 24/24/24
f 28/28/28 27/27/27 26/26/26
f 27/27/27 29/29/29 26/26/26
f 27/27/27 30/30/30 29/29/29
f 33/33/33 32/32/32 31/31/31
f 32/32/32 34/34/34 31/31/31
f 32/32/32 35/35/35 34/34/34
f 38/38/38 37/37/37 36/36/36
f 37/37/37 39/39/39 36/36/36
f 37/37/37 40/40/40 39/39/39
f 43/43/43 42/42/42 41/41/41
f 42/42/42 44/44/44 41/41/41
f 42/42/42 45/45/45 44/44/44
f 48/48/48 47/47/47 46/46/46
f 47/47/47 49/49/49 46/46/46
f 47/47/47 50/50/50 49/49/49
f 53/53/53 52/52/52 51/51/51
f 52/52/52 54/54/54 51/51/51
f 52/52/52 55/55/55 54/54/54
f 58/58/58 57/57/57 56/56/56
f 57/57/57 59/59/59 56/56/56
f 57/57/57 60/60/60 59/59/59
f 63/63/63 62/62/62 61/61/61
f 62/62/62 64/64/64 61/61/61
f 62/62/62 65/65/65 64/64/64
f 68/68/68 67/67/67 66/66/66
f 67/67/67 69/69/69 66/66/66
f 67/67/67 70/70/70 69/69/69
f 73/73/73 72/72/72 71/71/71
f 72/72/72 74/74/74 71/71/71
f 72/72/72 75/75/75 74/74/74
f 78/78/78 77/77/77 76/76/76
f 77/77/77 79/79/79 76/76/76
f 77/77/77 80/80/80 79/79/79
f 83/83/83 82/82/82 81/81/81
f 82/82/82 84/84/84 81/81/81
f 82/82/82 85/85/85 84/84/84
f 88/88/88 87/87/87 86/86/86
f 87/87/87 89/89/89 86/86/86
f 87/87/87 90/90/90 89/89/89
